<svg aria-hidden="true" focusable="false" viewBox="280.923 183.733 512 512" width="50px" height="50px" xmlns="http://www.w3.org/2000/svg">
  <g transform="matrix(1.5625, 0, 0, 1.5625, -105.186394, -40.11076)">
    <circle style="fill: rgb(41, 42, 51);" cx="410.95" cy="307.1" r="128"/>
    <path d="M 448.485 356.689 C 448.042 360.547 447.41 364.326 446.59 368.03 C 445.771 371.734 444.765 375.037 443.57 377.937 C 442.392 380.822 440.874 383.116 439.013 384.824 C 437.17 386.531 435.063 387.384 432.69 387.384 C 430.317 387.384 428.166 385.566 426.238 381.931 C 424.311 378.296 422.493 373.475 420.786 367.467 C 419.078 361.459 417.517 354.675 416.101 347.115 C 414.685 339.555 413.421 331.875 412.312 324.075 C 411.204 316.292 410.282 308.689 409.547 301.265 C 408.797 293.859 408.198 287.408 407.755 281.912 C 406.867 287.562 405.828 293.867 404.632 300.83 C 403.454 307.811 402.046 314.892 400.408 322.078 C 398.788 329.279 397.011 336.33 395.083 343.224 C 393.156 350.118 391.072 356.272 388.837 361.681 C 386.617 367.091 384.247 371.435 381.72 374.712 C 379.193 377.971 376.523 379.601 373.707 379.601 C 371.198 379.601 368.682 377.894 366.155 374.481 C 363.629 371.069 361.181 366.579 358.808 361.016 C 356.435 355.453 354.208 349.258 352.126 342.43 C 350.061 335.62 348.133 328.76 346.341 321.848 C 344.567 314.954 343.013 308.433 341.682 302.289 C 340.35 296.127 339.309 290.974 338.558 286.827 C 338.558 289.932 338.525 293.38 338.456 297.169 C 338.372 300.94 338.328 303.646 338.328 305.284 C 338.328 306.019 338.295 308.467 338.226 312.632 C 338.157 316.779 337.901 321.745 337.458 327.531 C 337.015 333.316 336.339 339.512 335.435 346.116 C 334.547 352.721 333.252 358.84 331.544 364.472 C 329.837 370.104 327.73 374.847 325.221 378.705 C 322.694 382.563 319.581 384.637 315.877 384.926 C 312.907 383.595 310.416 381.334 308.402 378.142 C 306.405 374.95 304.741 371.204 303.41 366.904 C 302.078 362.603 301.037 358.013 300.286 353.131 C 299.552 348.234 298.963 343.446 298.52 338.769 C 298.077 334.092 297.811 329.758 297.726 325.764 C 297.657 321.753 297.624 318.486 297.624 315.96 C 297.624 311.505 297.88 305.907 298.392 299.166 C 298.922 292.408 299.774 285.324 300.952 277.918 C 302.148 270.494 303.709 263.078 305.637 255.672 C 307.565 248.248 309.904 241.61 312.651 235.755 C 315.383 229.9 318.565 225.113 322.2 221.393 C 325.835 217.689 330.026 215.838 334.77 215.838 C 337.005 215.838 339.378 217.1 341.886 219.627 C 344.413 222.136 346.937 225.43 349.464 229.508 C 351.991 233.604 354.438 238.169 356.811 243.204 C 359.184 248.255 361.445 253.334 363.595 258.436 C 365.746 263.556 367.64 268.454 369.278 273.131 C 370.899 277.808 372.23 281.776 373.272 285.035 C 374.468 281.469 375.952 277.311 377.726 272.568 C 379.501 267.824 381.464 262.891 383.614 257.771 C 385.765 252.651 388.138 247.608 390.731 242.641 C 393.325 237.675 396.03 233.228 398.846 229.304 C 401.68 225.361 404.537 222.169 407.422 219.729 C 410.323 217.29 413.252 216.068 416.203 216.068 C 421.408 216.068 425.862 217.996 429.566 221.854 C 433.271 225.712 436.384 230.712 438.91 236.856 C 441.437 243.018 443.442 249.919 444.926 257.566 C 446.411 265.195 447.556 272.755 448.357 280.248 C 449.176 287.741 449.696 294.745 449.918 301.265 C 450.141 307.801 450.251 313.075 450.251 317.086 C 450.251 318.707 450.251 320.926 450.251 323.742 C 450.251 326.558 450.218 329.75 450.149 333.316 C 450.08 336.883 449.893 340.664 449.586 344.657 C 449.296 348.669 448.928 352.678 448.485 356.689 Z" style="fill: rgb(239, 129, 11); white-space: pre;"/>
    <path d="M 472.111 382.392 C 463.988 382.392 456.923 380.362 450.914 376.299 C 444.924 372.221 439.957 366.75 436.015 359.889 C 432.091 353.028 429.162 345.059 427.234 335.979 C 425.289 326.916 424.316 317.386 424.316 307.384 C 424.316 298.047 425.348 288.586 427.413 278.993 C 429.479 269.386 432.644 260.715 436.911 252.984 C 441.179 245.252 446.58 238.922 453.116 233.988 C 459.652 229.055 467.452 226.59 476.514 226.59 C 485.321 226.59 492.693 228.953 498.633 233.681 C 504.554 238.425 509.282 244.561 512.815 252.088 C 516.348 259.614 518.882 268.044 520.418 277.38 C 521.954 286.717 522.722 296.051 522.722 305.387 C 522.722 315.78 521.691 325.611 519.625 334.878 C 517.559 344.145 514.428 352.312 510.229 359.377 C 506.031 366.443 500.765 372.049 494.434 376.196 C 488.085 380.326 480.644 382.392 472.111 382.392 Z M 474.517 270.776 C 471.991 270.776 469.825 271.782 468.015 273.796 C 466.223 275.793 464.731 278.422 463.535 281.681 C 462.324 284.958 461.454 288.627 460.924 292.689 C 460.394 296.752 460.13 300.848 460.13 304.977 C 460.13 309.654 460.43 314.321 461.026 318.98 C 461.623 323.658 462.519 327.856 463.714 331.576 C 464.925 335.313 466.428 338.316 468.22 340.587 C 470.03 342.858 472.196 343.992 474.722 343.992 C 477.659 343.992 479.988 342.525 481.711 339.588 C 483.452 336.652 484.827 333.119 485.833 328.99 C 486.823 324.861 487.489 320.593 487.829 316.19 C 488.155 311.787 488.316 308.118 488.316 305.182 C 488.316 301.58 488.085 297.784 487.625 293.79 C 487.164 289.779 486.396 286.077 485.321 282.68 C 484.263 279.283 482.863 276.451 481.122 274.18 C 479.381 271.91 477.18 270.776 474.517 270.776 Z" style="fill: rgb(255, 255, 255); white-space: pre;"/>
    <path d="M 537.288 361.225 C 537.288 362.984 536.572 364.63 535.138 366.166 C 533.704 367.702 531.854 369.102 529.583 370.364 C 527.312 371.627 524.778 372.727 521.98 373.667 C 519.182 374.606 516.417 375.408 513.685 376.073 C 510.954 376.739 508.378 377.251 505.954 377.609 C 503.548 377.95 501.646 378.121 500.245 378.121 C 498.914 378.121 497.498 378.001 495.996 377.763 C 494.478 377.525 493.231 376.977 492.258 376.124 C 491.695 375.715 491.208 374.775 490.799 373.308 C 490.371 371.842 489.962 370.091 489.57 368.06 C 489.194 366.03 488.861 363.836 488.572 361.481 C 488.298 359.144 488.078 356.855 487.906 354.62 C 487.719 352.368 487.573 350.302 487.471 348.425 C 487.368 346.531 487.317 345.054 487.317 343.996 C 487.317 342.256 487.368 340.139 487.471 337.648 C 487.573 335.172 487.734 332.51 487.957 329.66 C 488.162 326.827 488.444 323.944 488.802 321.008 C 489.142 318.071 489.544 315.291 490.005 312.662 C 490.448 310.033 491.004 307.67 491.669 305.571 C 492.335 303.472 493.052 301.826 493.82 300.63 C 495.151 298.754 496.833 297.814 498.863 297.814 C 500.263 297.814 501.456 298.283 502.447 299.222 C 503.42 300.162 504.206 301.39 504.802 302.908 C 505.398 304.411 505.852 306.083 506.159 307.926 C 506.484 309.787 506.714 311.63 506.85 313.456 C 506.986 315.266 507.055 316.945 507.055 318.499 C 507.055 320.035 507.055 321.256 507.055 322.16 C 507.055 327.62 506.934 333.032 506.696 338.39 C 506.458 343.748 506.338 349.16 506.338 354.62 L 506.338 358.716 C 509.479 357.726 512.899 356.796 516.604 355.926 C 520.323 355.056 523.866 354.62 527.228 354.62 C 528.405 354.62 529.608 354.69 530.837 354.825 C 532.066 354.961 533.149 355.26 534.088 355.721 C 535.043 356.164 535.822 356.83 536.418 357.718 C 536.999 358.588 537.288 359.758 537.288 361.225 Z" style="fill: rgb(239, 129, 11); white-space: pre;"/>
  </g>
</svg>
